<svg width="96" height="68" viewBox="0 0 96 68" fill="none" xmlns="http://www.w3.org/2000/svg">
<path d="M47.5 68C72.5 35.5 14 0 14 0C14 0 102 0 47.5 68Z" fill="#0B4BF0"/>
<path d="M6.62891 35L3.37109 20.4102H3.24219C3.39062 21.5352 3.46484 22.5664 3.46484 23.5039V35H0.511719V17.8672H5.41016L8.33984 31.332H8.43359L11.3398 17.8672H16.3086V35H13.2852V23.3867C13.2852 22.4258 13.3398 21.4414 13.4492 20.4336H13.3555L10.1094 35H6.62891Z" fill="white"/>
<path d="M44.7472 17.8672V28.9531C44.7472 30.9922 44.2863 32.5508 43.3644 33.6289C42.4425 34.6992 41.1105 35.2344 39.3683 35.2344C37.6652 35.2344 36.3683 34.7031 35.4777 33.6406C34.587 32.5703 34.1417 30.9922 34.1417 28.9062V17.8672H37.3058V29.1406C37.3058 31.3203 38.0284 32.4102 39.4738 32.4102C40.1456 32.4102 40.6652 32.1328 41.0323 31.5781C41.3995 31.0234 41.5831 30.2344 41.5831 29.2109V17.8672H44.7472Z" fill="white"/>
<path d="M70.3967 30.2773C70.3967 31.8789 69.9905 33.1055 69.178 33.957C68.3733 34.8086 67.2092 35.2344 65.6858 35.2344C64.1936 35.2344 62.9241 34.9414 61.8772 34.3555V31.2031C63.1584 32.0391 64.3342 32.457 65.4045 32.457C66.0139 32.457 66.4709 32.2891 66.7756 31.9531C67.0881 31.6172 67.2444 31.1602 67.2444 30.582C67.2444 30.0117 67.0608 29.4922 66.6936 29.0234C66.3264 28.5469 65.7209 28.0195 64.8772 27.4414C64.1428 26.9336 63.5842 26.4492 63.2014 25.9883C62.8264 25.5195 62.5334 24.9961 62.3225 24.418C62.1194 23.8398 62.0178 23.168 62.0178 22.4023C62.0178 20.9336 62.4241 19.7695 63.2366 18.9102C64.0569 18.0508 65.1545 17.6211 66.5295 17.6211C67.842 17.6211 69.1038 17.9883 70.3147 18.7227L69.26 21.2773C68.885 21.0586 68.4905 20.8633 68.0764 20.6914C67.6702 20.5195 67.2327 20.4336 66.7639 20.4336C66.2483 20.4336 65.8498 20.6055 65.5686 20.9492C65.2952 21.2852 65.1584 21.7461 65.1584 22.332C65.1584 22.9102 65.3225 23.4141 65.6506 23.8438C65.9866 24.2734 66.5686 24.7617 67.3967 25.3086C68.5139 26.0586 69.2913 26.8242 69.7288 27.6055C70.1741 28.3867 70.3967 29.2773 70.3967 30.2773Z" fill="white"/>
<path d="M95.1087 35H87.3861V17.8672H95.1087V20.6211H90.5736V24.6992H94.7806V27.4648H90.5736V32.2109H95.1087V35Z" fill="white"/>
</svg>
